<?xml version="1.0" encoding="utf-8"?>
<!-- Generator: Adobe Illustrator 24.1.2, SVG Export Plug-In . SVG Version: 6.00 Build 0)  -->
<svg version="1.1" id="Layer_1" xmlns="http://www.w3.org/2000/svg" xmlns:xlink="http://www.w3.org/1999/xlink" x="0px" y="0px"
	 viewBox="0 0 270 54.6" style="enable-background:new 0 0 270 54.6;" xml:space="preserve">
<style type="text/css">
	.st0{fill:#231F20;}
	.st1{clip-path:url(#SVGID_2_);fill:#231F20;}
</style>
<polygon class="st0" points="5.7,46.6 5.7,48.9 3.1,48.9 3.1,54.6 3.7,54.6 3.7,49.5 6.2,49.5 6.2,47.2 8.4,47.2 8.4,46.6 "/>
<polygon class="st0" points="11.7,20.2 11.7,22.2 10.3,22.2 10.3,31.6 9.5,31.6 9.5,54.4 10.1,54.4 10.1,32.2 10.9,32.2 10.9,22.8 
	12.3,22.8 12.3,20.8 14.8,20.8 14.8,22 16.4,22 16.4,24.3 17.4,25.3 19,23.6 20.7,25.3 21.4,24.5 22.3,25.4 22.3,26.6 23,26.6 
	23,54.4 23.6,54.4 23.6,26.1 22.9,26.1 22.9,25.2 21.4,23.7 20.7,24.4 19,22.8 17.4,24.4 17,24.1 17,21.5 15.4,21.5 15.4,20.2 "/>
<polygon class="st0" points="0,50.5 0,54.4 0.6,54.4 0.6,51.1 2.3,51.1 2.3,50.5 "/>
<polygon class="st0" points="29.7,34.5 29.7,47.8 24.3,47.8 24.3,54.6 24.9,54.6 24.9,48.4 30.2,48.4 30.2,35.1 33.2,35.1 
	33.2,34.5 "/>
<polygon class="st0" points="34,54.6 34.6,54.6 34.6,17 39.6,17 49.9,19 49.9,46.9 50.5,46.9 50.5,18.5 39.7,16.5 34,16.5 "/>
<polygon class="st0" points="49.4,17.4 46.2,9.4 38.6,7 35.1,15.8 34.5,15.5 38.3,6.3 46.6,8.9 49.9,17.2 "/>
<rect x="38.7" y="6.6" transform="matrix(0.9932 -0.1163 0.1163 0.9932 -1.0204 4.611)" class="st0" width="0.6" height="8.9"/>
<polygon class="st0" points="25.2,46.9 24.7,46.9 24.7,41.4 25.6,41.4 25.6,29.3 26.7,29.3 26.7,25.3 31.1,21 33.5,24 33.5,28.3 
	31.1,25.5 29.2,27.6 29.2,31.7 28.6,31.7 28.6,27.4 31.1,24.7 33,26.7 33,24.2 31.1,21.8 27.2,25.5 27.2,29.9 26.2,29.9 26.2,42 
	25.2,42 "/>
<rect x="28.3" y="32.4" class="st0" width="4.9" height="0.6"/>
<rect x="28.3" y="34.9" class="st0" width="1.6" height="0.6"/>
<rect x="28.3" y="37.4" class="st0" width="1.6" height="0.6"/>
<rect x="28.3" y="39.9" class="st0" width="1.6" height="0.6"/>
<rect x="28.3" y="42.4" class="st0" width="1.6" height="0.6"/>
<rect x="28.3" y="44.9" class="st0" width="1.6" height="0.6"/>
<polygon class="st0" points="57.1,46 56.5,46 56.5,35.1 51.4,35.1 51.4,34.5 57.1,34.5 "/>
<polygon class="st0" points="52.6,46.6 52.6,47.5 47.5,47.5 47.5,48.4 42.5,48.4 42.5,47.3 39.3,47.3 38.6,46.6 35.8,46.6 
	35.8,47.2 38.4,47.2 39,47.9 41.9,47.9 41.9,49 48,49 48,48.1 53.2,48.1 53.2,47.2 61.9,47.2 61.9,54.4 62.4,54.4 62.4,46.6 "/>
<path class="st0" d="M59.3,43l-2-3.8h4L59.3,43z M58.3,39.8l1,2l1-2H58.3z"/>
<polygon class="st0" points="66.6,0 61.9,13.1 61.9,45.4 62.4,45.4 62.4,13.2 67,0.6 67.8,0.6 76.1,3.5 79.9,15.1 79.9,44.7 
	80.4,44.7 80.4,15 76.5,3 67.9,0 "/>
<polygon class="st0" points="68.2,48.1 63.2,48.1 63.2,47.5 67.6,47.5 67.6,3.9 77.8,7.1 77.6,7.7 68.2,4.7 "/>
<polygon class="st0" points="77.9,45.1 77.9,47.5 70.9,47.5 70.9,54.4 71.4,54.4 71.4,48.1 78.5,48.1 78.5,45.7 95.6,45.7 
	95.6,46.3 98.1,46.3 98.1,54.6 98.7,54.6 98.7,45.7 96.2,45.7 96.2,45.1 "/>
<polygon class="st0" points="85.1,33.2 82.7,33.2 82.7,32 81.1,32 81.1,31.4 83.3,31.4 83.3,32.6 84.5,32.6 84.5,29.7 86.7,29.7 
	86.7,30.6 87.8,30.6 87.8,32.5 87.2,32.5 87.2,31.2 86.1,31.2 86.1,30.3 85.1,30.3 "/>
<polygon class="st0" points="100.4,40.9 100.4,42.1 99.4,42.1 99.4,40.9 94.5,40.9 94.5,42 92.2,42 92.2,42.9 87.2,42.9 87.2,42 
	81.5,42 81.5,44.6 82.1,44.6 82.1,42.6 86.7,42.6 86.7,43.5 92.8,43.5 92.8,42.6 95.1,42.6 95.1,41.5 98.8,41.5 98.8,42.7 101,42.7 
	101,41.5 104.6,41.5 104.6,42.3 110.7,42.3 110.7,54.4 111.2,54.4 111.2,41.8 105.2,41.8 105.2,40.9 "/>
<polygon class="st0" points="87.1,41.2 86.5,41.2 86.5,33 94.8,33 94.8,40.4 94.3,40.4 94.3,33.6 87.1,33.6 "/>
<polygon class="st0" points="97.7,40.4 97.1,40.4 97.1,38.4 95.4,38.4 95.4,37.8 97.7,37.8 "/>
<polygon class="st0" points="122.9,47.8 122.3,47.8 122.3,25.9 120.9,25.9 120.9,25.3 111.7,25.3 111.7,26.3 107.8,26.3 107.8,35.9 
	104.4,35.9 104.4,38.1 103.8,38.1 103.8,35.4 107.2,35.4 107.2,25.8 111.1,25.8 111.1,24.7 121.5,24.7 121.5,25.3 122.9,25.3 "/>
<polygon class="st0" points="98.4,40.4 102.6,40.4 100.5,38.5 "/>
<polygon class="st0" points="117,53 122.7,53 119.8,51.7 "/>
<polygon class="st0" points="105.1,40.4 104.5,40.4 104.5,39.5 102.2,39.5 102.2,39 105.1,39 "/>
<polygon class="st0" points="111.5,47.8 111.5,54.4 112.1,54.4 112.1,48.4 113.4,48.4 113.4,49.7 116.1,49.7 116.1,49.1 126.4,49.1 
	126.4,50.3 130.8,50.3 130.8,49.1 138.6,49.1 138.6,54.6 139.2,54.6 139.2,48.6 130.3,48.6 130.3,49.7 127,49.7 127,48.5 
	115.5,48.5 115.5,49.1 114,49.1 114,47.8 "/>
<polygon class="st0" points="125.6,47.8 125.1,47.8 125.1,33 125.9,33 125.9,21.1 128.6,21.1 128.6,21.7 126.4,21.7 126.4,33.6 
	125.6,33.6 "/>
<polygon class="st0" points="127.2,20 126.7,20 126.7,17.4 131.1,17.4 131.1,18 127.2,18 "/>
<g>
	<defs>
		<rect id="SVGID_1_" y="0" width="270" height="54.6"/>
	</defs>
	<clipPath id="SVGID_2_">
		<use xlink:href="#SVGID_1_"  style="overflow:visible;"/>
	</clipPath>
	<path class="st1" d="M135.9,47.8h-0.6V18h-1.9v-3.6h-2.3c-1,0-1.9,1.2-2.3,1.8v0.5h-0.6v-0.6l0-0.1c0-0.1,1.2-2.1,2.8-2.1h2.8v3.6
		h1.9V47.8z"/>
	<path class="st1" d="M139.2,47.8h-0.6V36.1h1V21.8h1.6v-0.7h3v-0.5l0.3,0c0.4,0,11-1.1,15.9,2l0.1,0.1v24.2h-0.6V23
		c-4.4-2.7-13.5-2-15.2-1.9v0.6h-3v0.7h-1.6v14.3h-1V47.8z"/>
	<polygon class="st1" points="171.2,54.6 170.6,54.6 170.6,52.7 153.4,52.7 153.4,54.4 152.8,54.4 152.8,52.2 171.2,52.2 	"/>
	<polygon class="st1" points="171.2,51.7 170.6,51.7 170.6,50.6 164.9,49.3 164.9,48.4 159.2,48.4 159.2,49.5 153.4,50.8 
		153.4,51.7 152.8,51.7 152.8,50.4 158.6,49 158.6,47.8 165.5,47.8 165.5,48.9 171.2,50.1 	"/>
	<polygon class="st1" points="169.4,33.1 168.8,33.1 168.8,32.3 167.3,32.3 167.3,31.3 165.5,31.3 165.5,29.8 163.3,29.8 
		163.3,31.3 161.2,31.3 161.2,30.7 162.7,30.7 162.7,29.2 166.1,29.2 166.1,30.7 167.9,30.7 167.9,31.7 169.4,31.7 	"/>
	<polygon class="st1" points="173,33.4 170.6,33.4 170.6,29.8 166.6,29.8 166.6,29.2 171.2,29.2 171.2,32.8 173,32.8 	"/>
	<polygon class="st1" points="189.2,54.3 188.7,54.3 188.7,53.8 177.4,53.8 177.4,51.7 172,51.7 172,51.1 178,51.1 178,53.2 
		189.2,53.2 	"/>
	<polygon class="st1" points="192.5,54.3 191.9,54.3 191.9,19.7 190.7,19.7 190.7,18.4 186.8,18.4 185,20.2 174.1,20.2 174.1,50.4 
		173.5,50.4 173.5,19.6 184.7,19.6 186.5,17.8 191.3,17.8 191.3,19.1 192.5,19.1 	"/>
	<polygon class="st1" points="197.2,31.3 196.6,31.3 196.6,28.2 193.4,28.2 193.4,27.6 197.2,27.6 	"/>
	<polygon class="st1" points="202.5,38.1 201.9,38.1 201.9,33.4 199.9,33.4 199.9,32.8 193.4,32.8 193.4,32.2 200.5,32.2 
		200.5,32.8 202.5,32.8 	"/>
	<rect x="193.4" y="46.2" class="st1" width="16.3" height="0.6"/>
	<polygon class="st1" points="216.2,54.4 215.6,54.4 215.6,52.7 203.7,52.7 203.7,54.3 203.1,54.3 203.1,52.2 216.2,52.2 	"/>
	<polygon class="st1" points="216,51.4 215.5,51.4 215.5,46.8 214.9,46.2 214.9,44.8 211.1,44.8 211.1,51.4 210.5,51.4 210.5,44.2 
		215.5,44.2 215.5,46 216,46.6 	"/>
	<polygon class="st1" points="206.6,45.3 206,45.3 206,42.7 198.1,42.7 198.1,41.6 196.5,41.6 196.5,43.4 194.9,43.4 194.9,45.3 
		194.3,45.3 194.3,42.8 195.9,42.8 195.9,41 198.7,41 198.7,42.2 206.6,42.2 	"/>
	<polygon class="st1" points="210.7,41.3 210.1,41.3 210.1,39.1 205.7,39.1 205.7,37.6 203.7,37.6 203.7,39.3 198.8,39.3 
		198.8,40.3 198.2,40.3 198.2,38.7 203.1,38.7 203.1,37 206.3,37 206.3,38.5 210.7,38.5 	"/>
	<polygon class="st1" points="212.6,43.8 212,43.8 212,42.6 207.4,42.6 207.4,42 212.6,42 	"/>
	<polygon class="st1" points="206.2,36.2 205.6,36.2 205.6,33.5 209,33.5 209,34.1 206.2,34.1 	"/>
	<polygon class="st1" points="207.8,32.5 207.2,32.5 207.2,31 208.4,31 208.4,29.2 212.7,29.2 212.7,29.8 209,29.8 209,31.6 
		207.8,31.6 	"/>
	<polygon class="st1" points="214.2,43.8 213.6,43.8 213.6,12.5 215,12.5 215,9.9 218.6,9.9 218.6,12.4 220,12.4 221,13.4 221,43 
		220.4,43 220.4,13.6 219.7,13 218,13 218,10.5 215.6,10.5 215.6,13.1 214.2,13.1 	"/>
	<polygon class="st1" points="227.6,54.3 227,54.3 227,50.5 222.8,48.2 217.3,48.2 217.3,47.7 222.9,47.7 227.6,50.1 	"/>
	<polygon class="st1" points="268.8,54.3 268.2,54.3 268.2,48.9 226.9,48.9 226.9,48.3 268.8,48.3 	"/>
	<polygon class="st1" points="271.6,54.3 271.1,54.3 271.1,49.9 269.4,49.9 269.4,49.4 271.6,49.4 	"/>
	<polygon class="st1" points="268.8,46.4 268.2,46.4 268.2,32.8 267,32.8 267,31.6 260,31.6 260,32.8 258.6,32.8 258.6,37.3 
		258,37.3 258,32.2 259.4,32.2 259.4,31 267.6,31 267.6,32.2 268.8,32.2 	"/>
	<polygon class="st1" points="229.6,43 229.1,43 229.1,38.4 225.8,38.4 225.8,37.1 223.6,37.1 223.6,38.4 222.6,38.4 222.6,43 
		222,43 222,37.8 223,37.8 223,36.6 226.4,36.6 226.4,37.8 229.6,37.8 	"/>
	<polygon class="st1" points="241,42.3 240.5,42.3 240.5,13.9 237.5,10.9 237.5,10 234,10 234,12.4 233.5,12.4 233.5,42.3 
		232.9,42.3 232.9,11.8 233.5,11.8 233.5,9.4 238,9.4 238,10.6 241,13.6 	"/>
	<polygon class="st1" points="259.3,42.3 258.7,42.3 258.7,38.4 255,38.4 255,37.1 253.1,37.1 253.1,37.9 251.3,37.9 251.3,39 
		249.1,39 249.1,41.6 247.6,41.6 247.6,42.3 247.1,42.3 247.1,41 248.5,41 248.5,38.4 250.7,38.4 250.7,37.4 252.5,37.4 252.5,36.6 
		255.6,36.6 255.6,37.8 259.3,37.8 	"/>
	<rect x="225.1" y="41.1" class="st1" width="1" height="6.7"/>
	<rect x="231.3" y="41.1" class="st1" width="1" height="6.7"/>
	<rect x="237.5" y="41.1" class="st1" width="1" height="6.7"/>
	<rect x="243.6" y="41.1" class="st1" width="1" height="6.7"/>
	<rect x="249.8" y="41.1" class="st1" width="1" height="6.7"/>
	<rect x="256" y="41.1" class="st1" width="1" height="6.7"/>
	<rect x="262.2" y="41.1" class="st1" width="1" height="6.7"/>
	<rect x="217.3" y="44.2" class="st1" width="6.5" height="0.6"/>
	<rect x="226.9" y="44.2" class="st1" width="3.7" height="0.6"/>
	<rect x="233.2" y="44.2" class="st1" width="3.7" height="0.6"/>
	<rect x="239.5" y="44.2" class="st1" width="3.7" height="0.6"/>
	<rect x="245.5" y="44.2" class="st1" width="3.7" height="0.6"/>
	<rect x="251.5" y="44.2" class="st1" width="3.7" height="0.6"/>
	<rect x="257.8" y="44.2" class="st1" width="3.7" height="0.6"/>
	<rect x="7.2" y="47.8" class="st1" width="0.5" height="1.6"/>
	<rect x="8.2" y="47.8" class="st1" width="0.5" height="1.6"/>
	<rect x="4.4" y="50.1" class="st1" width="1.5" height="0.6"/>
	<rect x="4.4" y="51.1" class="st1" width="1.5" height="0.6"/>
	<rect x="4.4" y="52.1" class="st1" width="1.5" height="0.6"/>
	<rect x="4.4" y="53.1" class="st1" width="1.5" height="0.6"/>
	<rect x="6.4" y="50.1" class="st1" width="2.3" height="0.6"/>
	<rect x="6.4" y="51.1" class="st1" width="2.3" height="0.6"/>
	<rect x="6.4" y="52.1" class="st1" width="2.3" height="0.6"/>
	<rect x="6.4" y="53.1" class="st1" width="2.3" height="0.6"/>
	<polygon class="st1" points="13.8,48.4 13.5,48.4 13.5,35.8 11.1,35.8 11.1,35.5 13.8,35.5 	"/>
	<polygon class="st1" points="17.7,50.7 17.4,50.7 17.4,27.7 13,27.7 13,34.8 12.7,34.8 12.7,27.3 17.7,27.3 	"/>
	<polygon class="st1" points="19,48.4 18.7,48.4 18.7,34.6 22,34.6 22,34.9 19,34.9 	"/>
	<rect x="11.7" y="23.5" class="st1" width="0.3" height="2.3"/>
	<rect x="12.7" y="23.5" class="st1" width="0.3" height="2.3"/>
	<rect x="13.6" y="23.5" class="st1" width="0.3" height="2.3"/>
	<rect x="11.7" y="26.8" class="st1" width="0.3" height="5.5"/>
	<rect x="13.6" y="28.5" class="st1" width="1.5" height="0.5"/>
	<rect x="15.8" y="28.5" class="st1" width="1.1" height="0.5"/>
	<rect x="13.6" y="30" class="st1" width="1.5" height="0.5"/>
	<rect x="15.8" y="30" class="st1" width="1.1" height="0.5"/>
	<rect x="13.6" y="31.6" class="st1" width="1.5" height="0.5"/>
	<rect x="15.8" y="31.6" class="st1" width="1.1" height="0.5"/>
	<rect x="13.6" y="33.1" class="st1" width="1.5" height="0.5"/>
	<rect x="15.8" y="33.1" class="st1" width="1.1" height="0.5"/>
	<rect x="18.2" y="26.7" class="st1" width="1.1" height="0.5"/>
	<rect x="19.7" y="26.7" class="st1" width="0.7" height="0.5"/>
	<rect x="18.2" y="28.2" class="st1" width="1.1" height="0.5"/>
	<rect x="19.7" y="28.2" class="st1" width="0.7" height="0.5"/>
	<rect x="18.2" y="29.8" class="st1" width="1.1" height="0.5"/>
	<rect x="19.7" y="29.8" class="st1" width="0.7" height="0.5"/>
	<rect x="18.2" y="31.3" class="st1" width="1.1" height="0.5"/>
	<rect x="19.7" y="31.3" class="st1" width="0.7" height="0.5"/>
	<rect x="14.5" y="35.2" class="st1" width="0.7" height="0.5"/>
	<rect x="15.8" y="35.2" class="st1" width="1.1" height="0.5"/>
	<rect x="14.5" y="36.7" class="st1" width="0.7" height="0.5"/>
	<rect x="15.8" y="36.7" class="st1" width="1.1" height="0.5"/>
	<rect x="14.5" y="38.3" class="st1" width="0.7" height="0.5"/>
	<rect x="15.8" y="38.3" class="st1" width="1.1" height="0.5"/>
	<rect x="14.5" y="40.4" class="st1" width="0.7" height="0.5"/>
	<rect x="15.8" y="40.4" class="st1" width="1.1" height="0.5"/>
	<rect x="14.5" y="41.9" class="st1" width="0.7" height="0.5"/>
	<rect x="15.8" y="41.9" class="st1" width="1.1" height="0.5"/>
	<rect x="14.5" y="43.5" class="st1" width="0.7" height="0.5"/>
	<rect x="15.8" y="43.5" class="st1" width="1.1" height="0.5"/>
	<rect x="11.2" y="36.5" class="st1" width="2.1" height="0.5"/>
	<rect x="11.2" y="38" class="st1" width="2.1" height="0.5"/>
	<rect x="11.2" y="39.6" class="st1" width="2.1" height="0.5"/>
	<rect x="11.2" y="41.7" class="st1" width="2.1" height="0.5"/>
	<rect x="11.2" y="43.2" class="st1" width="2.1" height="0.5"/>
	<rect x="11.2" y="44.8" class="st1" width="2.1" height="0.5"/>
	<rect x="19.4" y="36" class="st1" width="2.1" height="0.5"/>
	<rect x="19.4" y="37.5" class="st1" width="2.1" height="0.5"/>
	<rect x="19.4" y="39.1" class="st1" width="2.1" height="0.5"/>
	<rect x="19.4" y="41.1" class="st1" width="2.1" height="0.5"/>
	<rect x="19.4" y="42.7" class="st1" width="2.1" height="0.5"/>
	<rect x="19.4" y="44.2" class="st1" width="2.1" height="0.5"/>
	<rect x="14.5" y="45.5" class="st1" width="0.7" height="0.5"/>
	<rect x="15.8" y="45.5" class="st1" width="1.1" height="0.5"/>
	<rect x="14.5" y="47.1" class="st1" width="0.7" height="0.5"/>
	<rect x="15.8" y="47.1" class="st1" width="1.1" height="0.5"/>
	<rect x="14.5" y="48.6" class="st1" width="0.7" height="0.5"/>
	<rect x="15.8" y="48.6" class="st1" width="1.1" height="0.5"/>
	<line class="st1" x1="21.4" y1="25.9" x2="21.4" y2="33.6"/>
	<rect x="30.2" y="27.2" class="st1" width="0.3" height="4.4"/>
	<rect x="31.8" y="27.2" class="st1" width="0.3" height="4.4"/>
	<rect x="29.7" y="28.3" class="st1" width="3" height="0.3"/>
	<rect x="29.7" y="29.4" class="st1" width="3" height="0.3"/>
	<rect x="29.7" y="30.4" class="st1" width="3" height="0.3"/>
	<rect x="30.8" y="35.6" class="st1" width="0.4" height="0.9"/>
	<rect x="30.8" y="37.3" class="st1" width="0.4" height="0.9"/>
	<rect x="30.8" y="38.9" class="st1" width="0.4" height="0.9"/>
	<rect x="30.8" y="40.5" class="st1" width="0.4" height="0.9"/>
	<rect x="30.8" y="42.2" class="st1" width="0.4" height="0.9"/>
	<rect x="30.8" y="43.8" class="st1" width="0.4" height="0.9"/>
	<rect x="30.8" y="45.4" class="st1" width="0.4" height="0.9"/>
	<rect x="30.8" y="47" class="st1" width="0.4" height="0.9"/>
	<rect x="30.8" y="48.7" class="st1" width="0.4" height="0.9"/>
	<rect x="31.7" y="35.6" class="st1" width="0.4" height="0.9"/>
	<rect x="32.7" y="35.6" class="st1" width="0.4" height="0.9"/>
	<rect x="31.7" y="45.4" class="st1" width="0.4" height="0.9"/>
	<rect x="32.7" y="45.4" class="st1" width="0.4" height="0.9"/>
	<rect x="31.7" y="47" class="st1" width="0.4" height="0.9"/>
	<rect x="32.7" y="47" class="st1" width="0.4" height="0.9"/>
	<rect x="31.7" y="48.7" class="st1" width="0.4" height="0.9"/>
	<rect x="32.7" y="48.7" class="st1" width="0.4" height="0.9"/>
	<rect x="31.7" y="38.4" class="st1" width="1.5" height="0.3"/>
	<rect x="31.7" y="40" class="st1" width="1.5" height="0.3"/>
	<rect x="31.7" y="41.7" class="st1" width="1.5" height="0.3"/>
	<rect x="31.7" y="43.3" class="st1" width="1.5" height="0.3"/>
	<rect x="39.4" y="16.7" class="st1" width="0.6" height="26.7"/>
	<rect x="35.3" y="18.4" class="st1" width="0.4" height="3.4"/>
	<rect x="36.8" y="18.4" class="st1" width="0.4" height="3.4"/>
	<rect x="38.2" y="18.4" class="st1" width="0.4" height="3.4"/>
	<rect x="35.3" y="22.8" class="st1" width="0.4" height="1.2"/>
	<rect x="36.8" y="22.8" class="st1" width="0.4" height="1.2"/>
	<rect x="38.2" y="22.8" class="st1" width="0.4" height="1.2"/>
	<rect x="35.3" y="25.3" class="st1" width="0.4" height="1.2"/>
	<rect x="36.8" y="25.3" class="st1" width="0.4" height="1.2"/>
	<rect x="38.2" y="25.3" class="st1" width="0.4" height="1.2"/>
	<rect x="35.3" y="27.7" class="st1" width="0.4" height="1.2"/>
	<rect x="36.8" y="27.7" class="st1" width="0.4" height="1.2"/>
	<rect x="38.2" y="27.7" class="st1" width="0.4" height="1.2"/>
	<rect x="35.3" y="30.1" class="st1" width="0.4" height="1.2"/>
	<rect x="36.8" y="30.1" class="st1" width="0.4" height="1.2"/>
	<rect x="38.2" y="30.1" class="st1" width="0.4" height="1.2"/>
	<rect x="35.3" y="32.5" class="st1" width="0.4" height="1.2"/>
	<rect x="36.8" y="32.5" class="st1" width="0.4" height="1.2"/>
	<rect x="38.2" y="32.5" class="st1" width="0.4" height="1.2"/>
	<rect x="35.3" y="34.9" class="st1" width="0.4" height="1.2"/>
	<rect x="36.8" y="34.9" class="st1" width="0.4" height="1.2"/>
	<rect x="38.2" y="34.9" class="st1" width="0.4" height="1.2"/>
	<rect x="35.3" y="37.4" class="st1" width="0.4" height="1.2"/>
	<rect x="36.8" y="37.4" class="st1" width="0.4" height="1.2"/>
	<rect x="38.2" y="37.4" class="st1" width="0.4" height="1.2"/>
	<rect x="35.3" y="39.8" class="st1" width="0.4" height="1.2"/>
	<rect x="36.8" y="39.8" class="st1" width="0.4" height="1.2"/>
	<rect x="38.2" y="39.8" class="st1" width="0.4" height="1.2"/>
	<rect x="35.3" y="42.2" class="st1" width="0.4" height="1.2"/>
	<rect x="36.8" y="42.2" class="st1" width="0.4" height="1.2"/>
	<rect x="38.2" y="42.2" class="st1" width="0.4" height="1.2"/>
	<rect x="45.2" y="15" transform="matrix(0.1803 -0.9836 0.9836 0.1803 17.6842 60.9442)" class="st1" width="0.3" height="9.8"/>
	<rect x="45.2" y="17.8" transform="matrix(0.1803 -0.9836 0.9836 0.1803 14.9039 63.2611)" class="st1" width="0.3" height="9.8"/>
	<rect x="45.2" y="19.2" transform="matrix(0.1803 -0.9836 0.9836 0.1803 13.5795 64.3648)" class="st1" width="0.3" height="9.8"/>
	<rect x="45.2" y="20.5" transform="matrix(0.1803 -0.9836 0.9836 0.1803 12.2547 65.4688)" class="st1" width="0.3" height="9.8"/>
	<rect x="45.2" y="21.8" transform="matrix(0.1803 -0.9836 0.9836 0.1803 10.9301 66.5726)" class="st1" width="0.3" height="9.8"/>
	<rect x="45.2" y="23.2" transform="matrix(0.1803 -0.9836 0.9836 0.1803 9.6057 67.6763)" class="st1" width="0.3" height="9.8"/>
	<rect x="45.2" y="30.4" transform="matrix(0.1803 -0.9836 0.9836 0.1803 2.5498 73.5562)" class="st1" width="0.3" height="9.8"/>
	<rect x="45.2" y="31.7" transform="matrix(0.1803 -0.9836 0.9836 0.1803 1.2254 74.6599)" class="st1" width="0.3" height="9.8"/>
	
		<rect x="45.2" y="33.1" transform="matrix(0.1803 -0.9836 0.9836 0.1803 -9.943272e-02 75.7639)" class="st1" width="0.3" height="9.8"/>
	<rect x="45.2" y="34.4" transform="matrix(0.1803 -0.9836 0.9836 0.1803 -1.424 76.8677)" class="st1" width="0.3" height="9.8"/>
	<rect x="45.2" y="35.8" transform="matrix(0.1803 -0.9836 0.9836 0.1803 -2.7484 77.9713)" class="st1" width="0.3" height="9.8"/>
	<rect x="51.4" y="35.7" class="st1" width="4.5" height="0.4"/>
	<rect x="51.4" y="37" class="st1" width="4.5" height="0.4"/>
	<rect x="51.4" y="38.4" class="st1" width="4.5" height="0.4"/>
	<rect x="51.4" y="39.7" class="st1" width="4.5" height="0.4"/>
	<rect x="51.4" y="41" class="st1" width="4.5" height="0.4"/>
	<rect x="51.4" y="42.3" class="st1" width="4.5" height="0.4"/>
	<rect x="51.4" y="43.7" class="st1" width="4.5" height="0.4"/>
	<rect x="51.4" y="45" class="st1" width="4.5" height="0.4"/>
	<path class="st1" d="M59.2,37.4l-2.1-4.8v1.1h-0.6V31h4.9L59.2,37.4z M57.2,31.5l1.9,4.3l1.5-4.3H57.2z"/>
	<rect x="57.6" y="35.9" class="st1" width="0.3" height="2.6"/>
	<rect x="60.2" y="35.9" class="st1" width="0.3" height="2.6"/>
	<rect x="57.6" y="41.8" class="st1" width="0.3" height="4.1"/>
	<rect x="60.2" y="41.8" class="st1" width="0.3" height="4.1"/>
	<rect x="53.8" y="47.8" class="st1" width="0.5" height="0.5"/>
	<rect x="54.8" y="47.8" class="st1" width="0.5" height="0.5"/>
	<rect x="55.8" y="47.8" class="st1" width="0.5" height="0.5"/>
	<rect x="56.8" y="47.8" class="st1" width="0.5" height="0.5"/>
	<rect x="57.8" y="47.8" class="st1" width="0.5" height="0.5"/>
	<rect x="58.8" y="47.8" class="st1" width="0.5" height="0.5"/>
	<rect x="59.8" y="47.8" class="st1" width="0.5" height="0.5"/>
	<rect x="60.8" y="47.8" class="st1" width="0.5" height="0.5"/>
	<path class="st1" d="M42.4,54.4h-0.3v-4.3c-1.8-0.7-3.4-0.2-3.8,0v4.3H38v-4.5l0.1,0c0.1,0,2-0.9,4.2,0l0.1,0V54.4z"/>
	<path class="st1" d="M47.6,54.4h-0.3v-4.3c-1.8-0.7-3.4-0.2-3.8,0v4.3h-0.3v-4.5l0.1,0c0.1,0,2-0.9,4.2,0l0.1,0V54.4z"/>
	<path class="st1" d="M52.8,54.4h-0.3v-4.3c-1.8-0.7-3.4-0.2-3.8,0v4.3h-0.3v-4.5l0.1,0c0.1,0,2-0.9,4.2,0l0.1,0V54.4z"/>
	<rect x="71.5" y="5.5" class="st1" width="0.6" height="40.4"/>
	<polygon class="st1" points="75.4,46 74.8,46 74.8,14.2 71.6,5.6 72.1,5.4 75.4,14.1 	"/>
	<rect x="68.8" y="6.3" class="st1" width="0.4" height="2.4"/>
	<rect x="70" y="6.3" class="st1" width="0.4" height="2.4"/>
	<rect x="68.8" y="10" class="st1" width="0.4" height="2.4"/>
	<rect x="70" y="10" class="st1" width="0.4" height="2.4"/>
	<rect x="68.8" y="13.6" class="st1" width="0.4" height="2.4"/>
	<rect x="70" y="13.6" class="st1" width="0.4" height="2.4"/>
	<rect x="68.8" y="17.2" class="st1" width="0.4" height="2.4"/>
	<rect x="70" y="17.2" class="st1" width="0.4" height="2.4"/>
	<rect x="68.8" y="20.8" class="st1" width="0.4" height="2.4"/>
	<rect x="70" y="20.8" class="st1" width="0.4" height="2.4"/>
	<rect x="68.8" y="24.5" class="st1" width="0.4" height="2.4"/>
	<rect x="70" y="24.5" class="st1" width="0.4" height="2.4"/>
	<rect x="68.8" y="28.1" class="st1" width="0.4" height="2.4"/>
	<rect x="70" y="28.1" class="st1" width="0.4" height="2.4"/>
	<rect x="68.8" y="31.7" class="st1" width="0.4" height="2.4"/>
	<rect x="70" y="31.7" class="st1" width="0.4" height="2.4"/>
	<rect x="76.1" y="15.4" class="st1" width="0.4" height="2.4"/>
	<rect x="77.2" y="16" class="st1" width="0.4" height="2.4"/>
	<rect x="76.1" y="19" class="st1" width="0.4" height="2.4"/>
	<rect x="77.2" y="19.7" class="st1" width="0.4" height="2.4"/>
	<rect x="76.1" y="22.7" class="st1" width="0.4" height="2.4"/>
	<rect x="77.2" y="23.3" class="st1" width="0.4" height="2.4"/>
	<rect x="76.1" y="26.3" class="st1" width="0.4" height="2.4"/>
	<rect x="77.2" y="26.9" class="st1" width="0.4" height="2.4"/>
	<rect x="76.1" y="29.9" class="st1" width="0.4" height="2.4"/>
	<rect x="77.2" y="30.6" class="st1" width="0.4" height="2.4"/>
	<rect x="78.5" y="16.7" class="st1" width="0.4" height="2.4"/>
	<rect x="78.5" y="20.3" class="st1" width="0.4" height="2.4"/>
	<rect x="78.5" y="23.9" class="st1" width="0.4" height="2.4"/>
	<rect x="78.5" y="27.6" class="st1" width="0.4" height="2.4"/>
	<rect x="78.5" y="31.2" class="st1" width="0.4" height="2.4"/>
	<rect x="76.1" y="36.7" class="st1" width="0.4" height="2.4"/>
	<rect x="77.2" y="37.4" class="st1" width="0.4" height="2.4"/>
	<rect x="76.1" y="40.3" class="st1" width="0.4" height="2.4"/>
	<rect x="77.2" y="41" class="st1" width="0.4" height="2.4"/>
	<rect x="78.5" y="38" class="st1" width="0.4" height="2.4"/>
	<rect x="78.5" y="41.6" class="st1" width="0.4" height="2.4"/>
	<rect x="68.8" y="35.4" class="st1" width="0.4" height="2.4"/>
	<rect x="70" y="35.4" class="st1" width="0.4" height="2.4"/>
	<rect x="68.8" y="39" class="st1" width="0.4" height="2.4"/>
	<rect x="70" y="39" class="st1" width="0.4" height="2.4"/>
	<rect x="68.8" y="42.6" class="st1" width="0.4" height="2.4"/>
	<rect x="70" y="42.6" class="st1" width="0.4" height="2.4"/>
	<rect x="64.8" y="4.9" class="st1" width="0.6" height="41.3"/>
	<rect x="66" y="4.9" class="st1" width="1" height="3.8"/>
	<rect x="63.2" y="14.4" class="st1" width="1" height="2.1"/>
	<rect x="73" y="14.4" class="st1" width="1" height="2.1"/>
	<rect x="82.5" y="34.6" class="st1" width="1.8" height="0.7"/>
	<rect x="82.5" y="36.5" class="st1" width="1.8" height="0.7"/>
	<rect x="82.5" y="38.4" class="st1" width="1.8" height="0.7"/>
	<rect x="82.5" y="40.3" class="st1" width="1.8" height="0.7"/>
	<rect x="88.5" y="34.6" class="st1" width="0.3" height="6.6"/>
	<rect x="89.2" y="34.6" class="st1" width="0.3" height="6.6"/>
	<rect x="89.9" y="34.6" class="st1" width="0.3" height="6.6"/>
	<rect x="91.8" y="34.6" class="st1" width="0.3" height="6.6"/>
	<rect x="92.5" y="34.6" class="st1" width="0.3" height="6.6"/>
	<rect x="93.2" y="34.6" class="st1" width="0.3" height="6.6"/>
	<path class="st1" d="M81.6,48.3h-1.7v-1.9h1.7V48.3z M80.2,48h1v-1.3h-1V48z"/>
	<path class="st1" d="M84.6,48.3h-1.7v-1.9h1.7V48.3z M83.2,48h1v-1.3h-1V48z"/>
	<path class="st1" d="M87.5,48.3h-1.7v-1.9h1.7V48.3z M86.2,48h1v-1.3h-1V48z"/>
	<path class="st1" d="M90.5,48.3h-1.7v-1.9h1.7V48.3z M89.1,48h1v-1.3h-1V48z"/>
	<path class="st1" d="M81.6,50.1h-1.7V49h1.7V50.1z M80.2,49.8h1v-0.5h-1V49.8z"/>
	<path class="st1" d="M84.6,50.1h-1.7V49h1.7V50.1z M83.2,49.8h1v-0.5h-1V49.8z"/>
	<path class="st1" d="M87.5,50.1h-1.7V49h1.7V50.1z M86.2,49.8h1v-0.5h-1V49.8z"/>
	<path class="st1" d="M90.5,50.1h-1.7V49h1.7V50.1z M89.1,49.8h1v-0.5h-1V49.8z"/>
	<path class="st1" d="M81.6,52.5h-1.7v-1.9h1.7V52.5z M80.2,52.2h1v-1.3h-1V52.2z"/>
	<path class="st1" d="M84.6,52.5h-1.7v-1.9h1.7V52.5z M83.2,52.2h1v-1.3h-1V52.2z"/>
	<path class="st1" d="M74.9,50.1h-1.7V49h1.7V50.1z M73.5,49.8h1v-0.5h-1V49.8z"/>
	<path class="st1" d="M77.8,50.1h-1.7V49h1.7V50.1z M76.5,49.8h1v-0.5h-1V49.8z"/>
	<path class="st1" d="M74.9,52.5h-1.7v-1.9h1.7V52.5z M73.5,52.2h1v-1.3h-1V52.2z"/>
	<path class="st1" d="M77.8,52.5h-1.7v-1.9h1.7V52.5z M76.5,52.2h1v-1.3h-1V52.2z"/>
	<path class="st1" d="M87.5,52.5h-1.7v-1.9h1.7V52.5z M86.2,52.2h1v-1.3h-1V52.2z"/>
	<path class="st1" d="M90.5,52.5h-1.7v-1.9h1.7V52.5z M89.1,52.2h1v-1.3h-1V52.2z"/>
	<polygon class="st1" points="95.5,51.9 95.2,51.9 95.2,48 92.5,48 92.5,45.4 92.8,45.4 92.8,47.6 95.5,47.6 	"/>
	<rect x="96.2" y="47.8" class="st1" width="0.3" height="5"/>
	<rect x="97.3" y="47.8" class="st1" width="0.3" height="5.8"/>
	<rect x="95.7" y="42" class="st1" width="0.3" height="0.8"/>
	<rect x="96.2" y="42" class="st1" width="0.3" height="0.8"/>
	<rect x="96.8" y="42" class="st1" width="0.3" height="0.8"/>
	<rect x="97.3" y="42" class="st1" width="0.3" height="0.8"/>
	<rect x="97.8" y="42" class="st1" width="0.3" height="0.8"/>
	<rect x="101.7" y="41.8" class="st1" width="0.3" height="0.8"/>
	<rect x="102.3" y="41.8" class="st1" width="0.3" height="0.8"/>
	<rect x="102.8" y="41.8" class="st1" width="0.3" height="0.8"/>
	<rect x="103.3" y="41.8" class="st1" width="0.3" height="0.8"/>
	<rect x="103.9" y="41.8" class="st1" width="0.3" height="0.8"/>
	<rect x="93.6" y="43.5" class="st1" width="2" height="0.3"/>
	<rect x="96.5" y="43.5" class="st1" width="2" height="0.3"/>
	<rect x="99.4" y="43.5" class="st1" width="2" height="0.3"/>
	<rect x="102.3" y="43.5" class="st1" width="2" height="0.3"/>
	<rect x="105.2" y="43.5" class="st1" width="2" height="0.3"/>
	<rect x="108.1" y="43.5" class="st1" width="2" height="0.3"/>
	<rect x="96.5" y="44.5" class="st1" width="2" height="0.3"/>
	<rect x="99.4" y="44.5" class="st1" width="2" height="0.3"/>
	<rect x="102.3" y="44.5" class="st1" width="2" height="0.3"/>
	<rect x="105.2" y="44.5" class="st1" width="2" height="0.3"/>
	<rect x="108.1" y="44.5" class="st1" width="2" height="0.3"/>
	<rect x="99.4" y="45.4" class="st1" width="2" height="0.3"/>
	<rect x="102.3" y="45.4" class="st1" width="2" height="0.3"/>
	<rect x="105.2" y="45.4" class="st1" width="2" height="0.3"/>
	<rect x="108.1" y="45.4" class="st1" width="2" height="0.3"/>
	<rect x="99.4" y="46.3" class="st1" width="2" height="0.3"/>
	<rect x="102.3" y="46.3" class="st1" width="2" height="0.3"/>
	<rect x="105.2" y="46.3" class="st1" width="2" height="0.3"/>
	<rect x="108.1" y="46.3" class="st1" width="2" height="0.3"/>
	<rect x="99.4" y="47.3" class="st1" width="2" height="0.3"/>
	<rect x="102.3" y="47.3" class="st1" width="2" height="0.3"/>
	<rect x="105.2" y="47.3" class="st1" width="2" height="0.3"/>
	<rect x="108.1" y="47.3" class="st1" width="2" height="0.3"/>
	<rect x="99.4" y="48.2" class="st1" width="2" height="0.3"/>
	<rect x="102.3" y="48.2" class="st1" width="2" height="0.3"/>
	<rect x="105.2" y="48.2" class="st1" width="2" height="0.3"/>
	<rect x="108.1" y="48.2" class="st1" width="2" height="0.3"/>
	<rect x="99.4" y="49.1" class="st1" width="2" height="0.3"/>
	<rect x="102.3" y="49.1" class="st1" width="2" height="0.3"/>
	<rect x="105.2" y="49.1" class="st1" width="2" height="0.3"/>
	<rect x="108.1" y="49.1" class="st1" width="2" height="0.3"/>
	<rect x="99.4" y="51.7" class="st1" width="2" height="0.3"/>
	<rect x="102.3" y="51.7" class="st1" width="2" height="0.3"/>
	<rect x="105.2" y="51.7" class="st1" width="2" height="0.3"/>
	<rect x="108.1" y="51.7" class="st1" width="2" height="0.3"/>
	<rect x="99.4" y="52.6" class="st1" width="2" height="0.3"/>
	<rect x="102.3" y="52.6" class="st1" width="2" height="0.3"/>
	<rect x="105.2" y="52.6" class="st1" width="2" height="0.3"/>
	<rect x="108.1" y="52.6" class="st1" width="2" height="0.3"/>
	<rect x="99.4" y="53.6" class="st1" width="2" height="0.3"/>
	<rect x="102.3" y="53.6" class="st1" width="2" height="0.3"/>
	<rect x="105.2" y="53.6" class="st1" width="2" height="0.3"/>
	<rect x="108.1" y="53.6" class="st1" width="2" height="0.3"/>
	<rect x="108.9" y="26" class="st1" width="0.3" height="13.8"/>
	<rect x="110.5" y="26" class="st1" width="0.3" height="13.8"/>
	<rect x="112.1" y="25" class="st1" width="0.3" height="20.6"/>
	<rect x="113.7" y="25" class="st1" width="0.3" height="20.6"/>
	<rect x="115.3" y="25" class="st1" width="0.3" height="20.6"/>
	<rect x="116.9" y="25" class="st1" width="0.3" height="20.6"/>
	<rect x="118.5" y="25" class="st1" width="0.3" height="20.6"/>
	<rect x="120.1" y="25" class="st1" width="0.3" height="20.6"/>
	<rect x="129.4" y="18.4" class="st1" width="1.8" height="0.4"/>
	<rect x="133.5" y="18.4" class="st1" width="1.2" height="0.4"/>
	<rect x="129.4" y="19.8" class="st1" width="1.8" height="0.4"/>
	<rect x="133.5" y="19.8" class="st1" width="1.2" height="0.4"/>
	<rect x="129.4" y="21.2" class="st1" width="1.8" height="0.4"/>
	<rect x="133.5" y="21.2" class="st1" width="1.2" height="0.4"/>
	<rect x="129.4" y="22.6" class="st1" width="1.8" height="0.4"/>
	<rect x="133.5" y="22.6" class="st1" width="1.2" height="0.4"/>
	<rect x="129.4" y="24" class="st1" width="1.8" height="0.4"/>
	<rect x="133.5" y="24" class="st1" width="1.2" height="0.4"/>
	<rect x="129.4" y="25.3" class="st1" width="1.8" height="0.4"/>
	<rect x="133.5" y="25.3" class="st1" width="1.2" height="0.4"/>
	<rect x="129.4" y="26.7" class="st1" width="1.8" height="0.4"/>
	<rect x="142.9" y="24.2" class="st1" width="1.8" height="0.4"/>
	<rect x="142.9" y="25.6" class="st1" width="1.8" height="0.4"/>
	<rect x="142.9" y="26.9" class="st1" width="1.8" height="0.4"/>
	<rect x="145.6" y="24.2" class="st1" width="1.8" height="0.4"/>
	<rect x="145.6" y="25.6" class="st1" width="1.8" height="0.4"/>
	<rect x="145.6" y="26.9" class="st1" width="1.8" height="0.4"/>
	<rect x="148.3" y="24.2" class="st1" width="1.8" height="0.4"/>
	<rect x="148.3" y="25.6" class="st1" width="1.8" height="0.4"/>
	<rect x="148.3" y="26.9" class="st1" width="1.8" height="0.4"/>
	<rect x="151.1" y="24.2" class="st1" width="1.8" height="0.4"/>
	<rect x="151.1" y="25.6" class="st1" width="1.8" height="0.4"/>
	<rect x="151.1" y="26.9" class="st1" width="1.8" height="0.4"/>
	<rect x="153.8" y="24.2" class="st1" width="1.8" height="0.4"/>
	<rect x="153.8" y="25.6" class="st1" width="1.8" height="0.4"/>
	<rect x="153.8" y="26.9" class="st1" width="1.8" height="0.4"/>
	<rect x="156.5" y="24.2" class="st1" width="1.8" height="0.4"/>
	<rect x="156.5" y="25.6" class="st1" width="1.8" height="0.4"/>
	<rect x="156.5" y="26.9" class="st1" width="1.8" height="0.4"/>
	<rect x="142.9" y="30.1" class="st1" width="1.8" height="0.4"/>
	<rect x="142.9" y="31.4" class="st1" width="1.8" height="0.4"/>
	<rect x="142.9" y="32.8" class="st1" width="1.8" height="0.4"/>
	<rect x="145.6" y="30.1" class="st1" width="1.8" height="0.4"/>
	<rect x="145.6" y="31.4" class="st1" width="1.8" height="0.4"/>
	<rect x="145.6" y="32.8" class="st1" width="1.8" height="0.4"/>
	<rect x="148.3" y="30.1" class="st1" width="1.8" height="0.4"/>
	<rect x="148.3" y="31.4" class="st1" width="1.8" height="0.4"/>
	<rect x="148.3" y="32.8" class="st1" width="1.8" height="0.4"/>
	<rect x="151.1" y="30.1" class="st1" width="1.8" height="0.4"/>
	<rect x="151.1" y="31.4" class="st1" width="1.8" height="0.4"/>
	<rect x="151.1" y="32.8" class="st1" width="1.8" height="0.4"/>
	<rect x="153.8" y="30.1" class="st1" width="1.8" height="0.4"/>
	<rect x="153.8" y="31.4" class="st1" width="1.8" height="0.4"/>
	<rect x="153.8" y="32.8" class="st1" width="1.8" height="0.4"/>
	<rect x="156.5" y="30.1" class="st1" width="1.8" height="0.4"/>
	<rect x="156.5" y="31.4" class="st1" width="1.8" height="0.4"/>
	<rect x="156.5" y="32.8" class="st1" width="1.8" height="0.4"/>
	<rect x="142.9" y="35.9" class="st1" width="1.8" height="0.4"/>
	<rect x="142.9" y="37.3" class="st1" width="1.8" height="0.4"/>
	<rect x="142.9" y="38.7" class="st1" width="1.8" height="0.4"/>
	<rect x="145.6" y="35.9" class="st1" width="1.8" height="0.4"/>
	<rect x="145.6" y="37.3" class="st1" width="1.8" height="0.4"/>
	<rect x="145.6" y="38.7" class="st1" width="1.8" height="0.4"/>
	<rect x="148.3" y="35.9" class="st1" width="1.8" height="0.4"/>
	<rect x="148.3" y="37.3" class="st1" width="1.8" height="0.4"/>
	<rect x="148.3" y="38.7" class="st1" width="1.8" height="0.4"/>
	<rect x="151.1" y="35.9" class="st1" width="1.8" height="0.4"/>
	<rect x="151.1" y="37.3" class="st1" width="1.8" height="0.4"/>
	<rect x="151.1" y="38.7" class="st1" width="1.8" height="0.4"/>
	<rect x="153.8" y="35.9" class="st1" width="1.8" height="0.4"/>
	<rect x="153.8" y="37.3" class="st1" width="1.8" height="0.4"/>
	<rect x="153.8" y="38.7" class="st1" width="1.8" height="0.4"/>
	<rect x="156.5" y="35.9" class="st1" width="1.8" height="0.4"/>
	<rect x="156.5" y="37.3" class="st1" width="1.8" height="0.4"/>
	<rect x="156.5" y="38.7" class="st1" width="1.8" height="0.4"/>
	<rect x="142.9" y="41.8" class="st1" width="1.8" height="0.4"/>
	<rect x="142.9" y="43.2" class="st1" width="1.8" height="0.4"/>
	<rect x="142.9" y="44.6" class="st1" width="1.8" height="0.4"/>
	<rect x="145.6" y="41.8" class="st1" width="1.8" height="0.4"/>
	<rect x="145.6" y="43.2" class="st1" width="1.8" height="0.4"/>
	<rect x="145.6" y="44.6" class="st1" width="1.8" height="0.4"/>
	<rect x="148.3" y="41.8" class="st1" width="1.8" height="0.4"/>
	<rect x="148.3" y="43.2" class="st1" width="1.8" height="0.4"/>
	<rect x="148.3" y="44.6" class="st1" width="1.8" height="0.4"/>
	<rect x="151.1" y="41.8" class="st1" width="1.8" height="0.4"/>
	<rect x="151.1" y="43.2" class="st1" width="1.8" height="0.4"/>
	<rect x="151.1" y="44.6" class="st1" width="1.8" height="0.4"/>
	<rect x="153.8" y="41.8" class="st1" width="1.8" height="0.4"/>
	<rect x="153.8" y="43.2" class="st1" width="1.8" height="0.4"/>
	<rect x="153.8" y="44.6" class="st1" width="1.8" height="0.4"/>
	<rect x="156.5" y="41.8" class="st1" width="1.8" height="0.4"/>
	<rect x="156.5" y="43.2" class="st1" width="1.8" height="0.4"/>
	<rect x="156.5" y="44.6" class="st1" width="1.8" height="0.4"/>
	<rect x="133.5" y="26.7" class="st1" width="1.2" height="0.4"/>
	<rect x="129.4" y="30.1" class="st1" width="1.8" height="0.4"/>
	<rect x="133.5" y="30.1" class="st1" width="1.2" height="0.4"/>
	<rect x="129.4" y="31.4" class="st1" width="1.8" height="0.4"/>
	<rect x="133.5" y="31.4" class="st1" width="1.2" height="0.4"/>
	<rect x="129.4" y="32.8" class="st1" width="1.8" height="0.4"/>
	<rect x="133.5" y="32.8" class="st1" width="1.2" height="0.4"/>
	<rect x="129.4" y="34.2" class="st1" width="1.8" height="0.4"/>
	<rect x="133.5" y="34.2" class="st1" width="1.2" height="0.4"/>
	<rect x="129.4" y="35.6" class="st1" width="1.8" height="0.4"/>
	<rect x="133.5" y="35.6" class="st1" width="1.2" height="0.4"/>
	<rect x="129.4" y="37" class="st1" width="1.8" height="0.4"/>
	<rect x="133.5" y="37" class="st1" width="1.2" height="0.4"/>
	<rect x="129.4" y="40.3" class="st1" width="1.8" height="0.4"/>
	<rect x="133.5" y="40.3" class="st1" width="1.2" height="0.4"/>
	<rect x="129.4" y="41.7" class="st1" width="1.8" height="0.4"/>
	<rect x="133.5" y="41.7" class="st1" width="1.2" height="0.4"/>
	<rect x="129.4" y="43.1" class="st1" width="1.8" height="0.4"/>
	<rect x="133.5" y="43.1" class="st1" width="1.2" height="0.4"/>
	<rect x="129.4" y="44.4" class="st1" width="1.8" height="0.4"/>
	<rect x="133.5" y="44.4" class="st1" width="1.2" height="0.4"/>
	<rect x="129.4" y="45.8" class="st1" width="1.8" height="0.4"/>
	<rect x="133.5" y="45.8" class="st1" width="1.2" height="0.4"/>
	<rect x="129.4" y="47.2" class="st1" width="1.8" height="0.4"/>
	<rect x="133.5" y="47.2" class="st1" width="1.2" height="0.4"/>
	<polygon class="st1" points="140.7,54.6 140.1,54.6 140.1,49.2 152,49.2 152,54.3 151.4,54.3 151.4,49.8 140.7,49.8 	"/>
	<rect x="141.3" y="50.5" class="st1" width="0.6" height="1.2"/>
	<rect x="142.9" y="50.5" class="st1" width="0.6" height="1.2"/>
	<rect x="144.5" y="50.5" class="st1" width="0.6" height="1.2"/>
	<rect x="146.1" y="50.5" class="st1" width="0.6" height="1.2"/>
	<polygon class="st1" points="138.1,47.8 137.5,47.8 137.5,40.1 136.5,40.1 136.5,35.9 137.2,35.9 137.2,34.8 138.9,34.8 
		138.9,35.4 137.7,35.4 137.7,36.5 137.1,36.5 137.1,39.5 138.1,39.5 	"/>
	<rect x="117.4" y="53.6" class="st1" width="0.8" height="0.5"/>
	<rect x="119.3" y="53.6" class="st1" width="0.8" height="0.5"/>
	<rect x="121.2" y="53.6" class="st1" width="0.8" height="0.5"/>
	<rect x="113.4" y="50.7" class="st1" width="4.5" height="0.4"/>
	<rect x="126.3" y="50.7" class="st1" width="4.5" height="0.4"/>
	<rect x="131.9" y="50.7" class="st1" width="5.9" height="0.4"/>
	<rect x="126.3" y="52.2" class="st1" width="4.5" height="0.4"/>
	<rect x="131.9" y="52.2" class="st1" width="5.9" height="0.4"/>
	<rect x="126.3" y="53.6" class="st1" width="4.5" height="0.4"/>
	<rect x="131.9" y="53.6" class="st1" width="5.9" height="0.4"/>
	<rect x="119.8" y="50.7" class="st1" width="5.6" height="0.4"/>
	<rect x="154.3" y="50.9" class="st1" width="0.4" height="0.8"/>
	<rect x="156.9" y="50.9" class="st1" width="0.4" height="0.8"/>
	<rect x="159.4" y="50.9" class="st1" width="0.4" height="0.8"/>
	<rect x="161.9" y="50.9" class="st1" width="0.4" height="0.8"/>
	<rect x="164.4" y="50.9" class="st1" width="0.4" height="0.8"/>
	<rect x="166.9" y="50.9" class="st1" width="0.4" height="0.8"/>
	<rect x="169.5" y="50.9" class="st1" width="0.4" height="0.8"/>
	<rect x="168.1" y="34.3" class="st1" width="4.9" height="0.6"/>
	<rect x="168.1" y="36.1" class="st1" width="4.9" height="0.6"/>
	<rect x="168.1" y="37.9" class="st1" width="4.9" height="0.6"/>
	<rect x="168.1" y="39.7" class="st1" width="4.9" height="0.6"/>
	<rect x="168.1" y="41.4" class="st1" width="4.9" height="0.6"/>
	<rect x="168.1" y="43.2" class="st1" width="4.9" height="0.6"/>
	<rect x="168.1" y="45" class="st1" width="4.9" height="0.6"/>
	<rect x="168.1" y="46.8" class="st1" width="4.9" height="0.6"/>
	<rect x="165.5" y="39.3" class="st1" width="1.8" height="0.6"/>
	<rect x="165.5" y="40.8" class="st1" width="1.8" height="0.6"/>
	<rect x="165.5" y="42.2" class="st1" width="1.8" height="0.6"/>
	<rect x="165.5" y="43.6" class="st1" width="1.8" height="0.6"/>
	<rect x="165.5" y="45" class="st1" width="1.8" height="0.6"/>
	<rect x="165.5" y="46.5" class="st1" width="1.8" height="0.6"/>
	<rect x="162" y="39.4" class="st1" width="1.8" height="0.6"/>
	<rect x="162" y="40.8" class="st1" width="1.8" height="0.6"/>
	<rect x="162" y="42.2" class="st1" width="1.8" height="0.6"/>
	<rect x="162" y="43.6" class="st1" width="1.8" height="0.6"/>
	<rect x="162" y="45.1" class="st1" width="1.8" height="0.6"/>
	<rect x="162" y="46.5" class="st1" width="1.8" height="0.6"/>
	<rect x="184.5" y="19.9" class="st1" width="0.6" height="30"/>
	<rect x="175" y="24.2" class="st1" width="8.6" height="0.3"/>
	<rect x="175" y="25.6" class="st1" width="8.6" height="0.3"/>
	<rect x="175" y="27" class="st1" width="8.6" height="0.3"/>
	<rect x="175" y="33.1" class="st1" width="8.6" height="0.3"/>
	<rect x="175" y="34.4" class="st1" width="8.6" height="0.3"/>
	<rect x="175" y="35.8" class="st1" width="8.6" height="0.3"/>
	<rect x="175" y="41.9" class="st1" width="8.6" height="0.3"/>
	<rect x="175" y="43.3" class="st1" width="8.6" height="0.3"/>
	<rect x="175" y="44.7" class="st1" width="8.6" height="0.3"/>
	<rect x="179.3" y="23.1" class="st1" width="0.6" height="26.5"/>
	<rect x="218.3" y="45.3" class="st1" width="0.6" height="1.5"/>
	<rect x="219.5" y="45.3" class="st1" width="0.6" height="1.5"/>
	<rect x="220.7" y="45.3" class="st1" width="0.6" height="1.5"/>
	<rect x="221.9" y="45.3" class="st1" width="0.6" height="1.5"/>
	<rect x="227.3" y="45.3" class="st1" width="0.6" height="1.5"/>
	<rect x="228.5" y="45.3" class="st1" width="0.6" height="1.5"/>
	<rect x="229.7" y="45.3" class="st1" width="0.6" height="1.5"/>
	<rect x="233.4" y="45.3" class="st1" width="0.6" height="1.5"/>
	<rect x="234.6" y="45.3" class="st1" width="0.6" height="1.5"/>
	<rect x="235.8" y="45.3" class="st1" width="0.6" height="1.5"/>
	<rect x="240.1" y="45.3" class="st1" width="0.6" height="1.5"/>
	<rect x="241.3" y="45.3" class="st1" width="0.6" height="1.5"/>
	<rect x="242.5" y="45.3" class="st1" width="0.6" height="1.5"/>
	<rect x="245.7" y="45.3" class="st1" width="0.6" height="1.5"/>
	<rect x="246.9" y="45.3" class="st1" width="0.6" height="1.5"/>
	<rect x="248.1" y="45.3" class="st1" width="0.6" height="1.5"/>
	<rect x="252" y="45.3" class="st1" width="0.6" height="1.5"/>
	<rect x="253.2" y="45.3" class="st1" width="0.6" height="1.5"/>
	<rect x="254.4" y="45.3" class="st1" width="0.6" height="1.5"/>
	<rect x="258.2" y="45.3" class="st1" width="0.6" height="1.5"/>
	<rect x="259.4" y="45.3" class="st1" width="0.6" height="1.5"/>
	<rect x="260.6" y="45.3" class="st1" width="0.6" height="1.5"/>
	<rect x="264" y="45.3" class="st1" width="0.6" height="1.5"/>
	<rect x="265.2" y="45.3" class="st1" width="0.6" height="1.5"/>
	<rect x="266.4" y="45.3" class="st1" width="0.6" height="1.5"/>
	<rect x="260" y="33.5" class="st1" width="3.2" height="0.4"/>
	<rect x="264.1" y="33.5" class="st1" width="3.2" height="0.4"/>
	<rect x="260" y="34.8" class="st1" width="3.2" height="0.4"/>
	<rect x="264.1" y="34.8" class="st1" width="3.2" height="0.4"/>
	<rect x="260" y="36" class="st1" width="3.2" height="0.4"/>
	<rect x="264.1" y="36" class="st1" width="3.2" height="0.4"/>
	<rect x="260" y="37.2" class="st1" width="3.2" height="0.4"/>
	<rect x="264.1" y="37.2" class="st1" width="3.2" height="0.4"/>
	<rect x="260" y="38.4" class="st1" width="3.2" height="0.4"/>
	<rect x="264.1" y="38.4" class="st1" width="3.2" height="0.4"/>
	<rect x="260" y="39.7" class="st1" width="3.2" height="0.4"/>
	<rect x="264.1" y="39.7" class="st1" width="3.2" height="0.4"/>
	<rect x="264.1" y="40.9" class="st1" width="3.2" height="0.4"/>
	<rect x="264.1" y="42.1" class="st1" width="3.2" height="0.4"/>
	<rect x="264.1" y="43.4" class="st1" width="3.2" height="0.4"/>
	<path class="st1" d="M216.8,15.3c-1,0-1.8-0.8-1.8-1.8v-0.7h0.6v0.7c0,0.7,0.6,1.2,1.2,1.2c0.7,0,1.2-0.6,1.2-1.2v-0.7h0.6v0.7
		C218.6,14.5,217.8,15.3,216.8,15.3"/>
	
		<rect x="218.2" y="14.3" transform="matrix(0.9996 -2.899981e-02 2.899981e-02 0.9996 -0.7361 6.3481)" class="st1" width="0.6" height="28.6"/>
	
		<rect x="215.7" y="14.3" transform="matrix(0.9995 -3.263876e-02 3.263876e-02 0.9995 -0.8168 7.0646)" class="st1" width="0.6" height="28.6"/>
	<path class="st1" d="M239.8,14.8c-0.7,0-1.4-0.6-1.5-0.7l-3.9-4.2l0.4-0.4l3.9,4.1c0.2,0.2,0.8,0.6,1.3,0.5c0.2,0,0.4-0.2,0.5-0.5
		l0.5,0.2c-0.2,0.5-0.5,0.8-0.9,0.9C240,14.8,239.9,14.8,239.8,14.8"/>
	
		<rect x="237.5" y="13" transform="matrix(0.9999 -1.102252e-02 1.102252e-02 0.9999 -0.2794 2.6231)" class="st1" width="0.6" height="27.3"/>
	<rect x="209.6" y="30.7" class="st1" width="1.2" height="0.6"/>
	<rect x="211.4" y="30.7" class="st1" width="1.2" height="0.6"/>
	<rect x="209.6" y="31.9" class="st1" width="1.2" height="0.6"/>
	<rect x="211.4" y="31.9" class="st1" width="1.2" height="0.6"/>
	<rect x="209.6" y="33.2" class="st1" width="1.2" height="0.6"/>
	<rect x="211.4" y="33.2" class="st1" width="1.2" height="0.6"/>
	<rect x="209.6" y="34.7" class="st1" width="1.2" height="0.6"/>
	<rect x="211.4" y="34.7" class="st1" width="1.2" height="0.6"/>
	<rect x="209.6" y="36" class="st1" width="1.2" height="0.6"/>
	<rect x="211.4" y="36" class="st1" width="1.2" height="0.6"/>
	<rect x="209.6" y="37.2" class="st1" width="1.2" height="0.6"/>
	<rect x="207.8" y="34.7" class="st1" width="1.2" height="0.6"/>
	<rect x="207.8" y="36" class="st1" width="1.2" height="0.6"/>
	<rect x="207.8" y="37.2" class="st1" width="1.2" height="0.6"/>
	<rect x="211.4" y="37.2" class="st1" width="1.2" height="0.6"/>
	<rect x="223.4" y="39" class="st1" width="5" height="0.3"/>
	<rect x="223.4" y="39.8" class="st1" width="5" height="0.3"/>
	<rect x="223.4" y="40.6" class="st1" width="5" height="0.3"/>
	<rect x="223.4" y="41.3" class="st1" width="1" height="0.3"/>
	<rect x="223.4" y="42.1" class="st1" width="1" height="0.3"/>
	<rect x="223.4" y="42.8" class="st1" width="1" height="0.3"/>
	<rect x="226.8" y="41.3" class="st1" width="1.6" height="0.3"/>
	<rect x="226.8" y="42.1" class="st1" width="1.6" height="0.3"/>
	<rect x="226.8" y="42.8" class="st1" width="1.6" height="0.3"/>
	<rect x="199.8" y="40.4" class="st1" width="0.4" height="0.9"/>
	<rect x="201.1" y="40.4" class="st1" width="0.4" height="0.9"/>
	<rect x="202.4" y="40.4" class="st1" width="0.4" height="0.9"/>
	<rect x="203.8" y="40.4" class="st1" width="0.4" height="0.9"/>
	<rect x="205.1" y="40.4" class="st1" width="0.4" height="0.9"/>
	<rect x="206.4" y="40.4" class="st1" width="0.4" height="0.9"/>
	<rect x="207.7" y="40.4" class="st1" width="0.4" height="0.9"/>
	<rect x="209" y="40.4" class="st1" width="0.4" height="0.9"/>
	<rect x="201.9" y="43.1" class="st1" width="1.2" height="0.4"/>
	<rect x="201.9" y="44" class="st1" width="1.2" height="0.4"/>
	<rect x="201.9" y="45" class="st1" width="1.2" height="0.4"/>
	<rect x="203.8" y="43.1" class="st1" width="1.2" height="0.4"/>
	<rect x="203.8" y="44" class="st1" width="1.2" height="0.4"/>
	<rect x="203.8" y="45" class="st1" width="1.2" height="0.4"/>
	<rect x="230" y="49.8" class="st1" width="37.3" height="0.6"/>
	<rect x="235.5" y="51.1" class="st1" width="0.6" height="0.9"/>
	<rect x="238.8" y="51.1" class="st1" width="0.6" height="0.9"/>
	<rect x="242.1" y="51.1" class="st1" width="0.6" height="0.9"/>
	<rect x="245.5" y="51.1" class="st1" width="0.6" height="0.9"/>
	<rect x="248.8" y="51.1" class="st1" width="0.6" height="0.9"/>
	<rect x="252.1" y="51.1" class="st1" width="0.6" height="0.9"/>
	<rect x="255.4" y="51.1" class="st1" width="0.6" height="0.9"/>
	<rect x="258.7" y="51.1" class="st1" width="0.6" height="0.9"/>
	<rect x="262.1" y="51.1" class="st1" width="0.6" height="0.9"/>
	<rect x="265.4" y="51.1" class="st1" width="0.6" height="0.9"/>
	<rect x="193.6" y="34.4" class="st1" width="0.6" height="1"/>
	<rect x="195.2" y="34.4" class="st1" width="0.6" height="1"/>
	<rect x="196.9" y="34.4" class="st1" width="0.6" height="1"/>
	<rect x="198.6" y="34.4" class="st1" width="0.6" height="1"/>
	<rect x="200.3" y="34.4" class="st1" width="0.6" height="1"/>
	<rect x="194.6" y="28.9" class="st1" width="1.2" height="2.4"/>
</g>
</svg>
